<?xml version="1.0" encoding="UTF-8" standalone="no"?>
<svg width="120px" height="30px" viewBox="0 0 120 30" version="1.1" xmlns="http://www.w3.org/2000/svg" xmlns:xlink="http://www.w3.org/1999/xlink" xmlns:sketch="http://www.bohemiancoding.com/sketch/ns">
    <title>icora_logo</title>
    <description>Created with Sketch (http://www.bohemiancoding.com/sketch)</description>
    <defs></defs>
    <g id="Page 1" stroke="none" stroke-width="1" fill="none" fill-rule="evenodd">
        <g id="Layer_1" fill="#4D4E4E">
            <g id="Group" transform="translate(112.814371, 0.483871)">
                <path d="M1.15233533,0.816048387 L0.0388023952,0.816048387 L0.0388023952,0.238548387 L2.88838323,0.238548387 L2.88838323,0.816048387 L1.77461078,0.816048387 L1.77461078,3.78580645 L1.15233533,3.78580645 L1.15233533,0.816048387 L1.15233533,0.816048387 Z M1.15233533,0.816048387" id="Shape"></path>
                <path d="M3.54035928,0.238548387 L4.19784431,0.238548387 L5.26658683,1.91612903 L6.33508982,0.238548387 L6.99257485,0.238548387 L6.99257485,3.78580645 L6.37556886,3.78580645 L6.37556886,1.24185484 L5.26658683,2.9141129 L5.24670659,2.9141129 L4.14754491,1.25201613 L4.14754491,3.78580645 L3.54035928,3.78580645 L3.54035928,0.238548387 L3.54035928,0.238548387 Z M3.54035928,0.238548387" id="Shape"></path>
            </g>
            <g id="Group">
                <path d="M0.147784431,0.60483871 L6.41844311,0.60483871 L6.41844311,29.3951613 L0.147784431,29.3951613 L0.147784431,0.60483871 L0.147784431,0.60483871 Z M0.147784431,0.60483871" id="Shape"></path>
                <path d="M8.44958084,15.0822581 L8.44958084,15 C8.44958084,6.81532258 14.5573653,0.111290323 23.3116168,0.111290323 C28.6864671,0.111290323 31.9032335,1.92096774 34.5497006,4.55322581 L30.5592814,9.20080645 C28.360479,7.18548387 26.1209581,5.95137097 23.2706587,5.95137097 C18.4658683,5.95137097 15.0047904,9.98201613 15.0047904,14.9175 L15.0047904,15 C15.0047904,19.9354839 18.3844311,24.0483871 23.2706587,24.0483871 C26.5281437,24.0483871 28.5233533,22.7320161 30.7628743,20.6755645 L34.7532934,24.7473387 C31.8215569,27.9142742 28.5640719,29.8884677 23.0670659,29.8884677 C14.679521,29.8884677 8.44958084,23.3491935 8.44958084,15.0822581 L8.44958084,15.0822581 Z M8.44958084,15.0822581" id="Shape"></path>
                <path d="M34.3322156,15.0822581 L34.3322156,15 C34.3322156,6.81532258 40.7250299,0.111290323 49.5202395,0.111290323 C58.3154491,0.111290323 64.6265868,6.73306452 64.6265868,14.9175 L64.6265868,15 C64.6265868,23.1846774 58.234012,29.8884677 49.4385629,29.8884677 C40.6438323,29.8884677 34.3322156,23.2669355 34.3322156,15.0822581 L34.3322156,15.0822581 Z M58.0708982,15.0822581 L58.0708982,15 C58.0708982,10.0645161 54.4876647,5.9516129 49.4385629,5.9516129 C44.3894611,5.9516129 40.8876647,9.98225806 40.8876647,14.9177419 L40.8876647,15 C40.8876647,19.9354839 44.4708982,24.0483871 49.52,24.0483871 C54.5691018,24.0483871 58.0708982,20.0177419 58.0708982,15.0822581 L58.0708982,15.0822581 Z M58.0708982,15.0822581" id="Shape"></path>
            </g>
            <path d="M89.748982,26.8904032 L84.4768862,19.1431452 C88.1010778,17.786129 90.5389222,14.8354839 90.5389222,10.1881452 L90.5389222,10.1056452 C90.5389222,7.39112903 89.7300599,5.18951613 88.1417964,3.58548387 C86.2687425,1.69354839 83.5053892,0.725806452 79.8814371,0.725806452 L66.8263473,0.725806452 L66.8263473,29.516129 L73.0538922,29.516129 L73.0538922,20.0806452 L78.0488623,20.0806452 L84.1566467,29.516129 L88.6682635,29.516129 L89.748982,26.8904032 L89.748982,26.8904032 Z M84.3113772,10.5169355 C84.3113772,12.9435484 82.5281437,14.516129 79.4742515,14.516129 L73.0538922,14.516129 L73.0538922,6.29032258 L79.3520958,6.29032258 C82.4057485,6.29032258 84.3113772,7.72040323 84.3113772,10.4346774 L84.3113772,10.5169355 L84.3113772,10.5169355 Z M84.3113772,10.5169355" id="Shape"></path>
            <path d="M101.809581,0.502258065 L107.591617,0.502258065 L119.807186,29.4977419 L113.251497,29.4977419 L110.645509,23.0407258 L98.5930539,23.0407258 L95.9870659,29.4977419 L89.594491,29.4977419 L101.809581,0.502258065 L101.809581,0.502258065 Z M108.405988,17.4471774 L104.619162,8.1108871 L100.832096,17.4471774 L108.405988,17.4471774 L108.405988,17.4471774 Z M108.405988,17.4471774" id="Shape"></path>
        </g>
    </g>
</svg>